<mxfile host="app.diagrams.net" agent="Mozilla/5.0 (Windows NT 10.0; Win64; x64) AppleWebKit/537.36 (KHTML, like Gecko) Chrome/130.0.0.0 Safari/537.36 OPR/115.0.0.0" version="26.0.5">
  <diagram name="PÃ¡gina-1" id="S2evmY8OYsauCU-zJ40_">
    <mxGraphModel dx="1392" dy="761" grid="1" gridSize="10" guides="1" tooltips="1" connect="1" arrows="1" fold="1" page="1" pageScale="1" pageWidth="827" pageHeight="1169" math="0" shadow="0">
      <root>
        <mxCell id="0" />
        <mxCell id="1" parent="0" />
        <mxCell id="tuMzxopBQjSGZ5QbMswW-4" style="edgeStyle=orthogonalEdgeStyle;rounded=0;orthogonalLoop=1;jettySize=auto;html=1;entryX=0.5;entryY=0;entryDx=0;entryDy=0;" edge="1" parent="1" source="tuMzxopBQjSGZ5QbMswW-1" target="tuMzxopBQjSGZ5QbMswW-3">
          <mxGeometry relative="1" as="geometry" />
        </mxCell>
        <mxCell id="tuMzxopBQjSGZ5QbMswW-1" value="INICIO" style="strokeWidth=2;html=1;shape=mxgraph.flowchart.start_1;whiteSpace=wrap;" vertex="1" parent="1">
          <mxGeometry x="364" y="10" width="100" height="60" as="geometry" />
        </mxCell>
        <mxCell id="tuMzxopBQjSGZ5QbMswW-2" value="FIM" style="strokeWidth=2;html=1;shape=mxgraph.flowchart.start_1;whiteSpace=wrap;" vertex="1" parent="1">
          <mxGeometry x="360" y="1240" width="100" height="60" as="geometry" />
        </mxCell>
        <mxCell id="tuMzxopBQjSGZ5QbMswW-6" style="edgeStyle=orthogonalEdgeStyle;rounded=0;orthogonalLoop=1;jettySize=auto;html=1;" edge="1" parent="1" source="tuMzxopBQjSGZ5QbMswW-3" target="tuMzxopBQjSGZ5QbMswW-5">
          <mxGeometry relative="1" as="geometry" />
        </mxCell>
        <mxCell id="tuMzxopBQjSGZ5QbMswW-3" value="var_Num[5] = {5, 40, 27, 13 ,60}&lt;div&gt;media = 0&lt;/div&gt;&lt;div&gt;contador&lt;/div&gt;&lt;div&gt;maiorQueAMedia = 0&lt;/div&gt;" style="shape=parallelogram;html=1;strokeWidth=2;perimeter=parallelogramPerimeter;whiteSpace=wrap;rounded=1;arcSize=12;size=0.23;" vertex="1" parent="1">
          <mxGeometry x="292" y="130" width="244" height="60" as="geometry" />
        </mxCell>
        <mxCell id="tuMzxopBQjSGZ5QbMswW-8" style="edgeStyle=orthogonalEdgeStyle;rounded=0;orthogonalLoop=1;jettySize=auto;html=1;" edge="1" parent="1" source="tuMzxopBQjSGZ5QbMswW-5" target="tuMzxopBQjSGZ5QbMswW-7">
          <mxGeometry relative="1" as="geometry" />
        </mxCell>
        <mxCell id="tuMzxopBQjSGZ5QbMswW-10" value="V" style="edgeLabel;html=1;align=center;verticalAlign=middle;resizable=0;points=[];" vertex="1" connectable="0" parent="tuMzxopBQjSGZ5QbMswW-8">
          <mxGeometry x="-0.1667" y="-2" relative="1" as="geometry">
            <mxPoint as="offset" />
          </mxGeometry>
        </mxCell>
        <mxCell id="tuMzxopBQjSGZ5QbMswW-14" style="edgeStyle=orthogonalEdgeStyle;rounded=0;orthogonalLoop=1;jettySize=auto;html=1;entryX=1;entryY=0.5;entryDx=0;entryDy=0;" edge="1" parent="1" source="tuMzxopBQjSGZ5QbMswW-5" target="tuMzxopBQjSGZ5QbMswW-11">
          <mxGeometry relative="1" as="geometry">
            <Array as="points">
              <mxPoint x="580" y="260" />
              <mxPoint x="580" y="470" />
            </Array>
          </mxGeometry>
        </mxCell>
        <mxCell id="tuMzxopBQjSGZ5QbMswW-15" value="F" style="edgeLabel;html=1;align=center;verticalAlign=middle;resizable=0;points=[];" vertex="1" connectable="0" parent="tuMzxopBQjSGZ5QbMswW-14">
          <mxGeometry x="-0.4716" y="3" relative="1" as="geometry">
            <mxPoint as="offset" />
          </mxGeometry>
        </mxCell>
        <mxCell id="tuMzxopBQjSGZ5QbMswW-5" value="contador = 0, &amp;lt; 5, ++" style="rounded=1;whiteSpace=wrap;html=1;absoluteArcSize=1;arcSize=14;strokeWidth=2;" vertex="1" parent="1">
          <mxGeometry x="329" y="240" width="170" height="40" as="geometry" />
        </mxCell>
        <mxCell id="tuMzxopBQjSGZ5QbMswW-9" style="edgeStyle=orthogonalEdgeStyle;rounded=0;orthogonalLoop=1;jettySize=auto;html=1;entryX=0;entryY=0.5;entryDx=0;entryDy=0;" edge="1" parent="1" source="tuMzxopBQjSGZ5QbMswW-7" target="tuMzxopBQjSGZ5QbMswW-5">
          <mxGeometry relative="1" as="geometry">
            <Array as="points">
              <mxPoint x="270" y="365" />
              <mxPoint x="270" y="260" />
            </Array>
          </mxGeometry>
        </mxCell>
        <mxCell id="tuMzxopBQjSGZ5QbMswW-12" style="edgeStyle=orthogonalEdgeStyle;rounded=0;orthogonalLoop=1;jettySize=auto;html=1;entryX=0.5;entryY=0;entryDx=0;entryDy=0;" edge="1" parent="1" source="tuMzxopBQjSGZ5QbMswW-7" target="tuMzxopBQjSGZ5QbMswW-11">
          <mxGeometry relative="1" as="geometry" />
        </mxCell>
        <mxCell id="tuMzxopBQjSGZ5QbMswW-7" value="media += var_Num[contador]" style="rounded=1;whiteSpace=wrap;html=1;absoluteArcSize=1;arcSize=14;strokeWidth=2;" vertex="1" parent="1">
          <mxGeometry x="334" y="340" width="160" height="50" as="geometry" />
        </mxCell>
        <mxCell id="tuMzxopBQjSGZ5QbMswW-11" value="media = media / 5" style="rounded=1;whiteSpace=wrap;html=1;absoluteArcSize=1;arcSize=14;strokeWidth=2;" vertex="1" parent="1">
          <mxGeometry x="362" y="450" width="104" height="40" as="geometry" />
        </mxCell>
        <mxCell id="tuMzxopBQjSGZ5QbMswW-19" style="edgeStyle=orthogonalEdgeStyle;rounded=0;orthogonalLoop=1;jettySize=auto;html=1;entryX=0.5;entryY=0;entryDx=0;entryDy=0;" edge="1" parent="1" source="tuMzxopBQjSGZ5QbMswW-16" target="tuMzxopBQjSGZ5QbMswW-18">
          <mxGeometry relative="1" as="geometry" />
        </mxCell>
        <mxCell id="tuMzxopBQjSGZ5QbMswW-16" value="media" style="strokeWidth=2;html=1;shape=mxgraph.flowchart.display;whiteSpace=wrap;" vertex="1" parent="1">
          <mxGeometry x="364" y="540" width="100" height="60" as="geometry" />
        </mxCell>
        <mxCell id="tuMzxopBQjSGZ5QbMswW-17" style="edgeStyle=orthogonalEdgeStyle;rounded=0;orthogonalLoop=1;jettySize=auto;html=1;entryX=0.5;entryY=0;entryDx=0;entryDy=0;entryPerimeter=0;" edge="1" parent="1" source="tuMzxopBQjSGZ5QbMswW-11" target="tuMzxopBQjSGZ5QbMswW-16">
          <mxGeometry relative="1" as="geometry" />
        </mxCell>
        <mxCell id="tuMzxopBQjSGZ5QbMswW-21" style="edgeStyle=orthogonalEdgeStyle;rounded=0;orthogonalLoop=1;jettySize=auto;html=1;" edge="1" parent="1" source="tuMzxopBQjSGZ5QbMswW-18" target="tuMzxopBQjSGZ5QbMswW-20">
          <mxGeometry relative="1" as="geometry" />
        </mxCell>
        <mxCell id="tuMzxopBQjSGZ5QbMswW-22" value="V" style="edgeLabel;html=1;align=center;verticalAlign=middle;resizable=0;points=[];" vertex="1" connectable="0" parent="tuMzxopBQjSGZ5QbMswW-21">
          <mxGeometry x="0.68" relative="1" as="geometry">
            <mxPoint as="offset" />
          </mxGeometry>
        </mxCell>
        <mxCell id="tuMzxopBQjSGZ5QbMswW-18" value="contador = 0, &amp;lt; 5, ++" style="rounded=1;whiteSpace=wrap;html=1;absoluteArcSize=1;arcSize=14;strokeWidth=2;" vertex="1" parent="1">
          <mxGeometry x="329" y="650" width="170" height="40" as="geometry" />
        </mxCell>
        <mxCell id="tuMzxopBQjSGZ5QbMswW-20" value="var_Num[contador] &amp;gt; media" style="strokeWidth=2;html=1;shape=mxgraph.flowchart.decision;whiteSpace=wrap;" vertex="1" parent="1">
          <mxGeometry x="337" y="720" width="154" height="120" as="geometry" />
        </mxCell>
        <mxCell id="tuMzxopBQjSGZ5QbMswW-26" style="edgeStyle=orthogonalEdgeStyle;rounded=0;orthogonalLoop=1;jettySize=auto;html=1;" edge="1" parent="1" source="tuMzxopBQjSGZ5QbMswW-24" target="tuMzxopBQjSGZ5QbMswW-25">
          <mxGeometry relative="1" as="geometry" />
        </mxCell>
        <mxCell id="tuMzxopBQjSGZ5QbMswW-24" value="var_Num[contador]" style="strokeWidth=2;html=1;shape=mxgraph.flowchart.display;whiteSpace=wrap;" vertex="1" parent="1">
          <mxGeometry x="182" y="840" width="110" height="70" as="geometry" />
        </mxCell>
        <mxCell id="tuMzxopBQjSGZ5QbMswW-25" value="maiorQueAMedia += 1" style="rounded=1;whiteSpace=wrap;html=1;absoluteArcSize=1;arcSize=14;strokeWidth=2;" vertex="1" parent="1">
          <mxGeometry x="173" y="950" width="128" height="40" as="geometry" />
        </mxCell>
        <mxCell id="tuMzxopBQjSGZ5QbMswW-27" style="edgeStyle=orthogonalEdgeStyle;rounded=0;orthogonalLoop=1;jettySize=auto;html=1;entryX=0.5;entryY=0;entryDx=0;entryDy=0;entryPerimeter=0;" edge="1" parent="1" source="tuMzxopBQjSGZ5QbMswW-20" target="tuMzxopBQjSGZ5QbMswW-24">
          <mxGeometry relative="1" as="geometry" />
        </mxCell>
        <mxCell id="tuMzxopBQjSGZ5QbMswW-28" value="V" style="edgeLabel;html=1;align=center;verticalAlign=middle;resizable=0;points=[];" vertex="1" connectable="0" parent="tuMzxopBQjSGZ5QbMswW-27">
          <mxGeometry x="-0.6125" y="-2" relative="1" as="geometry">
            <mxPoint as="offset" />
          </mxGeometry>
        </mxCell>
        <mxCell id="tuMzxopBQjSGZ5QbMswW-37" style="edgeStyle=orthogonalEdgeStyle;rounded=0;orthogonalLoop=1;jettySize=auto;html=1;entryX=0;entryY=0.25;entryDx=0;entryDy=0;" edge="1" parent="1" source="tuMzxopBQjSGZ5QbMswW-29" target="tuMzxopBQjSGZ5QbMswW-18">
          <mxGeometry relative="1" as="geometry">
            <Array as="points">
              <mxPoint x="416" y="1080" />
              <mxPoint x="150" y="1080" />
              <mxPoint x="150" y="660" />
            </Array>
          </mxGeometry>
        </mxCell>
        <mxCell id="tuMzxopBQjSGZ5QbMswW-29" value="" style="strokeWidth=2;html=1;shape=mxgraph.flowchart.start_2;whiteSpace=wrap;" vertex="1" parent="1">
          <mxGeometry x="401" y="1010" width="30" height="30" as="geometry" />
        </mxCell>
        <mxCell id="tuMzxopBQjSGZ5QbMswW-30" style="edgeStyle=orthogonalEdgeStyle;rounded=0;orthogonalLoop=1;jettySize=auto;html=1;entryX=0;entryY=0.5;entryDx=0;entryDy=0;entryPerimeter=0;" edge="1" parent="1" source="tuMzxopBQjSGZ5QbMswW-25" target="tuMzxopBQjSGZ5QbMswW-29">
          <mxGeometry relative="1" as="geometry">
            <Array as="points">
              <mxPoint x="237" y="1025" />
            </Array>
          </mxGeometry>
        </mxCell>
        <mxCell id="tuMzxopBQjSGZ5QbMswW-31" style="edgeStyle=orthogonalEdgeStyle;rounded=0;orthogonalLoop=1;jettySize=auto;html=1;entryX=1;entryY=0.5;entryDx=0;entryDy=0;entryPerimeter=0;" edge="1" parent="1" source="tuMzxopBQjSGZ5QbMswW-20" target="tuMzxopBQjSGZ5QbMswW-29">
          <mxGeometry relative="1" as="geometry">
            <Array as="points">
              <mxPoint x="590" y="780" />
              <mxPoint x="590" y="1025" />
            </Array>
          </mxGeometry>
        </mxCell>
        <mxCell id="tuMzxopBQjSGZ5QbMswW-32" value="F" style="edgeLabel;html=1;align=center;verticalAlign=middle;resizable=0;points=[];" vertex="1" connectable="0" parent="tuMzxopBQjSGZ5QbMswW-31">
          <mxGeometry x="-0.7546" y="-2" relative="1" as="geometry">
            <mxPoint as="offset" />
          </mxGeometry>
        </mxCell>
        <mxCell id="tuMzxopBQjSGZ5QbMswW-34" style="edgeStyle=orthogonalEdgeStyle;rounded=0;orthogonalLoop=1;jettySize=auto;html=1;" edge="1" parent="1" source="tuMzxopBQjSGZ5QbMswW-33" target="tuMzxopBQjSGZ5QbMswW-2">
          <mxGeometry relative="1" as="geometry" />
        </mxCell>
        <mxCell id="tuMzxopBQjSGZ5QbMswW-33" value="maiorQueAMedia" style="strokeWidth=2;html=1;shape=mxgraph.flowchart.display;whiteSpace=wrap;" vertex="1" parent="1">
          <mxGeometry x="360" y="1120" width="100" height="60" as="geometry" />
        </mxCell>
        <mxCell id="tuMzxopBQjSGZ5QbMswW-35" style="edgeStyle=orthogonalEdgeStyle;rounded=0;orthogonalLoop=1;jettySize=auto;html=1;entryX=1;entryY=0.5;entryDx=0;entryDy=0;entryPerimeter=0;" edge="1" parent="1" source="tuMzxopBQjSGZ5QbMswW-18" target="tuMzxopBQjSGZ5QbMswW-33">
          <mxGeometry relative="1" as="geometry">
            <Array as="points">
              <mxPoint x="710" y="670" />
              <mxPoint x="710" y="1150" />
            </Array>
          </mxGeometry>
        </mxCell>
        <mxCell id="tuMzxopBQjSGZ5QbMswW-36" value="F" style="edgeLabel;html=1;align=center;verticalAlign=middle;resizable=0;points=[];" vertex="1" connectable="0" parent="tuMzxopBQjSGZ5QbMswW-35">
          <mxGeometry x="-0.8661" y="3" relative="1" as="geometry">
            <mxPoint as="offset" />
          </mxGeometry>
        </mxCell>
      </root>
    </mxGraphModel>
  </diagram>
</mxfile>
